<?xml version="1.0" standalone="no"?>
<!DOCTYPE svg PUBLIC "-//W3C//DTD SVG 20010904//EN"
 "http://www.w3.org/TR/2001/REC-SVG-20010904/DTD/svg10.dtd">
<svg version="1.0" xmlns="http://www.w3.org/2000/svg"
 width="16.000000pt" height="16.000000pt" viewBox="0 0 16.000000 16.000000"
 preserveAspectRatio="xMidYMid meet">
<metadata>
Created by potrace 1.11, written by Peter Selinger 2001-2013
</metadata>
<g transform="translate(0.000000,16.000000) scale(0.002286,-0.002286)"
fill="#000000" stroke="none">
<path d="M3674 6915 c-33 -7 -92 -26 -130 -41 -38 -15 -73 -27 -79 -27 -5 1
-37 11 -70 23 -74 28 -220 35 -295 15 -28 -7 -53 -14 -55 -14 -145 -35 -360
-206 -482 -383 -132 -191 -221 -426 -258 -688 -2 -14 -13 -81 -24 -150 -11
-69 -22 -143 -26 -165 -33 -242 -84 -438 -145 -572 -21 -45 -53 -103 -71 -130
-71 -103 -190 -211 -291 -263 -45 -23 -46 -25 -23 -31 43 -12 147 20 237 72
39 23 47 25 52 12 11 -27 6 -56 -11 -75 -15 -17 -15 -18 3 -19 34 -2 55 2 98
20 39 17 173 113 188 135 4 6 8 7 8 2 0 -24 -107 -183 -149 -220 -45 -41 -8
-54 59 -22 28 13 50 23 50 22 0 -2 -16 -35 -35 -76 -47 -96 -99 -176 -143
-222 -26 -27 -33 -41 -25 -49 13 -13 87 7 104 28 6 7 16 13 21 13 5 0 28 13
51 29 87 59 89 53 17 -36 -90 -111 -188 -211 -256 -260 -30 -21 -54 -41 -54
-45 0 -3 18 -5 40 -3 47 4 138 44 188 83 60 46 64 47 56 15 -9 -42 -45 -144
-61 -175 -7 -16 -11 -28 -8 -28 16 0 95 63 133 105 l42 47 1 -38 c0 -22 3
-124 5 -229 9 -320 9 -1299 1 -1505 -8 -196 -12 -245 -22 -307 -3 -18 -3 -33
-1 -33 2 0 16 20 31 45 41 65 67 69 98 16 34 -57 26 -203 -22 -409 -27 -119
-27 -122 -7 -105 45 38 139 141 171 187 l34 49 13 -29 c31 -72 10 -388 -43
-622 -5 -23 -12 -59 -15 -80 -3 -20 -15 -75 -26 -121 -10 -45 -17 -85 -15 -87
8 -9 159 206 209 298 29 54 58 98 64 98 7 0 19 -17 28 -37 12 -31 15 -68 11
-193 -2 -85 -6 -168 -10 -183 -4 -22 -3 -27 7 -21 35 21 89 120 124 227 18 56
31 82 36 74 10 -14 8 -166 -3 -217 -4 -19 -10 -48 -12 -65 -3 -16 -9 -48 -15
-70 -6 -22 -14 -53 -17 -70 -3 -16 -8 -41 -11 -55 -3 -14 -14 -51 -25 -83 -39
-111 7 -76 74 56 41 83 62 134 107 267 17 52 38 109 46 125 l14 30 1 -40 c0
-22 2 -49 5 -60 2 -11 6 -36 8 -55 17 -120 26 -179 30 -191 3 -8 7 -30 10 -49
5 -36 47 -184 64 -230 11 -28 47 -65 38 -39 -3 8 -8 25 -10 39 -3 14 -7 34 -9
45 -3 11 -8 43 -11 70 -4 28 -9 61 -11 75 -8 51 -25 187 -30 240 -3 30 -7 71
-10 90 -2 19 -7 60 -10 90 -3 30 -7 71 -10 90 -6 46 -17 147 -20 185 -2 17 -6
53 -9 80 -3 28 -8 84 -11 125 -3 41 -8 95 -10 120 -6 55 -23 249 -30 350 -11
142 -13 290 -5 285 17 -10 86 -220 104 -315 3 -14 10 -50 16 -80 6 -30 14 -68
17 -85 9 -58 62 -360 68 -390 10 -50 35 -139 47 -162 16 -33 30 -28 17 5 -18
44 -14 380 5 399 1 2 11 -43 21 -100 10 -56 19 -104 20 -107 24 -132 68 -277
91 -306 15 -18 15 -18 9 9 -7 36 -25 176 -30 242 -4 49 -9 96 -20 185 -4 25
-8 61 -9 80 -10 97 -35 182 -118 399 -153 401 -256 713 -371 1131 -59 212
-121 455 -133 519 -3 14 -18 79 -34 145 -27 113 -55 238 -66 296 -3 14 -21
104 -41 200 -37 183 -41 232 -29 340 8 66 34 228 51 310 3 14 12 61 21 105 8
44 17 89 20 100 2 11 6 29 8 40 37 177 139 573 192 745 77 249 147 411 177
409 6 0 48 -53 92 -117 70 -101 239 -338 262 -367 4 -6 54 -72 111 -148 56
-76 109 -145 117 -155 7 -9 46 -57 86 -107 105 -131 189 -224 324 -359 67 -67
134 -141 150 -165 46 -68 73 -163 69 -242 -9 -180 -126 -333 -416 -547 -89
-65 -97 -74 -106 -115 -11 -55 -8 -169 8 -267 35 -217 147 -570 244 -768 20
-40 36 -75 36 -77 0 -19 104 -170 144 -209 l50 -49 -1 -71 c-1 -39 -4 -91 -7
-116 -26 -254 -29 -631 -4 -695 9 -23 48 -93 88 -155 156 -250 201 -389 195
-610 -3 -96 -24 -245 -39 -269 -6 -9 15 -35 46 -55 26 -17 27 -17 47 3 43 43
58 162 56 424 -2 175 -11 387 -20 477 -2 19 -6 69 -10 110 -7 95 -15 175 -20
220 -2 19 -7 62 -10 95 -4 33 -9 69 -12 80 -3 11 -3 17 1 14 3 -3 28 -89 56
-190 185 -688 399 -1089 582 -1089 20 0 20 3 -14 38 -66 69 -146 207 -187 322
-7 19 -17 44 -22 55 -37 88 -116 397 -144 565 -3 19 -10 58 -15 85 -8 43 -22
140 -25 170 -2 16 -17 118 -20 136 -2 8 -6 53 -10 100 -4 46 -8 86 -10 89 -2
3 -6 55 -10 115 -3 61 -9 118 -11 128 -8 27 4 20 21 -13 16 -30 101 -120 115
-120 4 0 4 17 0 38 -89 412 -117 548 -126 598 -2 16 -7 40 -9 54 -3 14 -8 36
-10 50 -3 14 -17 95 -30 180 -14 85 -28 164 -30 175 -3 14 10 5 42 -28 53 -55
102 -82 157 -86 43 -3 43 -3 -9 64 -33 43 -98 172 -139 274 -25 63 -25 63 -3
47 95 -70 181 -115 195 -102 2 2 -10 33 -26 67 -48 102 -192 557 -192 605 0 8
36 -15 79 -50 43 -35 100 -76 125 -91 45 -27 136 -59 136 -49 0 3 -17 26 -39
52 -46 56 -101 152 -171 299 -28 60 -56 116 -61 126 -6 11 15 1 53 -25 71 -50
135 -78 177 -78 46 0 44 12 -7 41 -26 15 -63 45 -82 66 -51 58 -80 93 -80 97
0 1 66 3 148 3 95 -1 157 3 176 11 32 14 31 20 -4 27 -55 11 -98 30 -138 62
-42 35 -78 88 -64 96 7 4 90 18 105 17 12 0 109 51 124 65 22 22 15 25 -38 19
-68 -8 -130 11 -182 56 -62 55 -122 185 -142 310 -3 19 -8 42 -10 50 -2 8 -7
35 -10 60 -3 25 -8 61 -10 80 -3 19 -7 55 -10 80 -23 197 -57 337 -110 455 -7
17 -30 71 -50 120 -153 371 -419 705 -640 800 -116 50 -258 66 -371 40z"/>
</g>
</svg>
